<mxfile host="app.diagrams.net" agent="Mozilla/5.0 (Windows NT 10.0; Win64; x64) AppleWebKit/537.36 (KHTML, like Gecko) Chrome/129.0.0.0 Safari/537.36" version="24.7.17">
  <diagram name="Page-1" id="GaDPl6HSc4n3qU7PB_9V">
    <mxGraphModel dx="989" dy="514" grid="1" gridSize="10" guides="1" tooltips="1" connect="1" arrows="1" fold="1" page="1" pageScale="1" pageWidth="850" pageHeight="1100" math="0" shadow="0">
      <root>
        <mxCell id="0" />
        <mxCell id="1" parent="0" />
        <mxCell id="K5GjQwJg7MNMJBrKKAyr-1" value="" style="shape=folder;fontStyle=1;spacingTop=10;tabWidth=40;tabHeight=14;tabPosition=left;html=1;whiteSpace=wrap;" vertex="1" parent="1">
          <mxGeometry x="540" y="235" width="130" height="145" as="geometry" />
        </mxCell>
        <mxCell id="K5GjQwJg7MNMJBrKKAyr-2" value="" style="shape=folder;fontStyle=1;spacingTop=10;tabWidth=40;tabHeight=14;tabPosition=left;html=1;whiteSpace=wrap;" vertex="1" parent="1">
          <mxGeometry x="320" y="210" width="145" height="160" as="geometry" />
        </mxCell>
        <mxCell id="K5GjQwJg7MNMJBrKKAyr-4" value="Connection" style="shape=folder;fontStyle=1;spacingTop=10;tabWidth=40;tabHeight=14;tabPosition=left;html=1;whiteSpace=wrap;" vertex="1" parent="1">
          <mxGeometry x="380" y="235" width="70" height="50" as="geometry" />
        </mxCell>
        <mxCell id="K5GjQwJg7MNMJBrKKAyr-5" value="time, Flask, jsonify" style="shape=folder;fontStyle=1;spacingTop=10;tabWidth=40;tabHeight=14;tabPosition=left;html=1;whiteSpace=wrap;" vertex="1" parent="1">
          <mxGeometry x="380" y="300" width="70" height="50" as="geometry" />
        </mxCell>
        <mxCell id="K5GjQwJg7MNMJBrKKAyr-6" value="DAO" style="text;html=1;align=center;verticalAlign=middle;resizable=0;points=[];autosize=1;strokeColor=none;fillColor=none;" vertex="1" parent="1">
          <mxGeometry x="320" y="230" width="50" height="30" as="geometry" />
        </mxCell>
        <mxCell id="K5GjQwJg7MNMJBrKKAyr-8" value="" style="shape=folder;fontStyle=1;spacingTop=10;tabWidth=40;tabHeight=14;tabPosition=left;html=1;whiteSpace=wrap;" vertex="1" parent="1">
          <mxGeometry x="320" y="400" width="145" height="160" as="geometry" />
        </mxCell>
        <mxCell id="K5GjQwJg7MNMJBrKKAyr-9" value="app" style="text;html=1;align=center;verticalAlign=middle;resizable=0;points=[];autosize=1;strokeColor=none;fillColor=none;" vertex="1" parent="1">
          <mxGeometry x="320" y="415" width="40" height="30" as="geometry" />
        </mxCell>
        <mxCell id="K5GjQwJg7MNMJBrKKAyr-7" value="Flask, render_template, request, requests" style="shape=folder;fontStyle=1;spacingTop=10;tabWidth=40;tabHeight=14;tabPosition=left;html=1;whiteSpace=wrap;" vertex="1" parent="1">
          <mxGeometry x="337.5" y="480" width="110" height="60" as="geometry" />
        </mxCell>
        <mxCell id="K5GjQwJg7MNMJBrKKAyr-10" value="NewsApiClient" style="shape=folder;fontStyle=1;spacingTop=10;tabWidth=40;tabHeight=14;tabPosition=left;html=1;whiteSpace=wrap;" vertex="1" parent="1">
          <mxGeometry x="360" y="420" width="100" height="50" as="geometry" />
        </mxCell>
        <mxCell id="K5GjQwJg7MNMJBrKKAyr-11" value="mysql.connector" style="shape=folder;fontStyle=1;spacingTop=10;tabWidth=40;tabHeight=14;tabPosition=left;html=1;whiteSpace=wrap;" vertex="1" parent="1">
          <mxGeometry x="550" y="310" width="110" height="55" as="geometry" />
        </mxCell>
        <mxCell id="K5GjQwJg7MNMJBrKKAyr-12" value="Connection" style="text;html=1;align=center;verticalAlign=middle;resizable=0;points=[];autosize=1;strokeColor=none;fillColor=none;" vertex="1" parent="1">
          <mxGeometry x="540" y="250" width="80" height="30" as="geometry" />
        </mxCell>
        <mxCell id="K5GjQwJg7MNMJBrKKAyr-13" value="&amp;lt;&amp;lt;import&amp;gt;&amp;gt;" style="endArrow=open;endSize=12;dashed=1;html=1;rounded=0;" edge="1" parent="1" source="K5GjQwJg7MNMJBrKKAyr-4" target="K5GjQwJg7MNMJBrKKAyr-1">
          <mxGeometry width="160" relative="1" as="geometry">
            <mxPoint x="340" y="380" as="sourcePoint" />
            <mxPoint x="500" y="380" as="targetPoint" />
          </mxGeometry>
        </mxCell>
      </root>
    </mxGraphModel>
  </diagram>
</mxfile>
